
<svg width="100%" height="100%" viewBox="0 0 24 24" fill="none" xmlns="http://www.w3.org/2000/svg">
<path fill-rule="evenodd" clip-rule="evenodd" d="M13.5058 2.25145L20.6022 5.22226C21.5692 5.62712 22.1649 6.74755 21.9596 7.77245L20.1125 16.9645C19.9275 17.887 19.1195 18.9341 18.2738 19.3487L13.5035 21.6893C13.0806 21.8961 12.5384 22 11.9961 22C11.4538 22 10.9115 21.8961 10.4887 21.6893L5.71792 19.3487C4.87361 18.9346 4.06183 17.8902 3.86946 16.9715L2.04423 8.23899C1.83188 7.22337 2.40342 6.08346 3.34485 5.64428L10.4868 2.3122C11.326 1.92079 12.6522 1.89389 13.5058 2.25145ZM18.9726 16.7373L20.8197 7.54521C20.9159 7.06615 20.6041 6.48043 20.1529 6.29215L13.0565 3.32133C12.7944 3.21142 12.4422 3.15762 12.0853 3.15762C11.6806 3.15762 11.2698 3.22672 10.9785 3.3626L3.83647 6.69469C3.38527 6.90523 3.07905 7.51646 3.18082 8.00248L5.00604 16.735C5.12686 17.3133 5.69887 18.0479 6.22952 18.3085L11.0003 20.6491C11.5305 20.9092 12.4608 20.9088 12.99 20.6491L17.7608 18.3085H17.7613C18.2905 18.0488 18.8565 17.3147 18.9726 16.7373ZM11.9956 14.7112C12.3162 14.7112 12.5765 14.4515 12.5765 14.1315V12.8547C13.2549 12.6141 13.7456 11.9736 13.7456 11.2149C13.7456 10.2522 12.9607 9.46841 11.9956 9.46841C11.0305 9.46841 10.2457 10.2517 10.2457 11.2149C10.2457 11.9736 10.7359 12.6145 11.4148 12.8547V14.1315C11.4148 14.4519 11.675 14.7112 11.9956 14.7112ZM11.9956 10.6278C11.6713 10.6278 11.4073 10.8912 11.4073 11.2149C11.4073 11.5386 11.6713 11.802 11.9956 11.802C12.32 11.802 12.5839 11.5386 12.5839 11.2149C12.5839 10.8912 12.32 10.6278 11.9956 10.6278Z" fill="currentColor"/>
<path d="M17.133 15.8459L12.9905 17.8781C12.4212 18.1573 11.6155 18.18 11.2754 18.0126L10.2986 17.5335C10.0101 17.3921 9.6625 17.5108 9.52124 17.7979C9.37998 18.0854 9.49847 18.4327 9.78657 18.5742L10.7633 19.0533C11.0709 19.204 11.4691 19.2777 11.892 19.2777C12.4357 19.2777 13.0197 19.1553 13.5035 18.9188L17.646 16.8866C17.9336 16.7451 18.0526 16.3978 17.9109 16.1103C17.7691 15.8232 17.4211 15.7045 17.133 15.8459Z" fill="#E0F64B"/>
<path d="M13.0565 5.63916L15.2288 6.54858C15.5253 6.67194 15.865 6.53328 15.989 6.23833C16.1136 5.94292 15.9742 5.60345 15.6782 5.47963L13.5058 4.56974C12.6592 4.21497 11.3321 4.21543 10.4855 4.56974L5.70912 6.56899C5.41312 6.69281 5.27372 7.03274 5.39825 7.32769C5.49165 7.54983 5.70726 7.68339 5.93402 7.68339C6.00883 7.68339 6.08503 7.66855 6.15845 7.63794L10.9348 5.63869C11.5003 5.40218 12.491 5.40218 13.0565 5.63916Z" fill="#E0F64B"/>
</svg>
