<svg xmlns:xlink="http://www.w3.org/1999/xlink" xmlns="http://www.w3.org/2000/svg" width="88" height="88" viewBox="0 0 88 88" fill="none">
<path fill-rule="evenodd" clip-rule="evenodd" d="M44.0001 88C68.3007 88 88 68.3003 88 43.9998C88 19.6994 68.3007 0 44.0001 0C19.6995 0 0 19.6994 0 43.9998C0 68.3003 19.6995 88 44.0001 88Z" fill="#171717"></path>
<path d="M44.9381 77.0803C26.8864 77.0803 12.2031 62.242 12.2031 44C12.2031 25.7579 26.8864 10.9197 44.9381 10.9197C53.163 10.9197 60.9306 13.9681 66.9692 19.5264C67.5986 20.1057 67.597 21.095 66.9955 21.7038L64.2724 24.4599C63.6706 25.069 62.6966 25.0655 62.0601 24.4934C57.3367 20.2492 51.3122 17.9299 44.9381 17.9299C30.7095 17.9299 19.1401 29.6291 19.1401 44C19.1401 58.3709 30.7172 70.0701 44.9381 70.0701C51.1049 70.0701 56.9763 67.8812 61.6377 63.8707C62.286 63.3129 63.2591 63.3297 63.8483 63.9509L66.5168 66.7645C67.1059 67.3856 67.0875 68.3748 66.4462 68.9407C60.4834 74.2014 52.9011 77.0803 44.9381 77.0803Z" fill="#E0F64B"></path>
<path d="M44.6435 59.0948C53.3349 59.0948 60.3807 52.0491 60.3807 43.3576C60.3807 34.6662 53.3349 27.6204 44.6435 27.6204C35.9521 27.6204 28.9062 34.6662 28.9062 43.3576C28.9062 52.0491 35.9521 59.0948 44.6435 59.0948Z" fill="#E0F64B"></path>
<path d="M44.3225 53.3138C49.6438 53.3138 53.9576 49 53.9576 43.6787C53.9576 38.3575 49.6438 34.0437 44.3225 34.0437C39.0013 34.0437 34.6875 38.3575 34.6875 43.6787C34.6875 49 39.0013 53.3138 44.3225 53.3138Z" fill="#171717"></path>
<script xmlns=""></script><script xmlns=""></script></svg>