
<svg width="19" height="20" viewBox="0 0 19 20" fill="none" xmlns="http://www.w3.org/2000/svg">
<path fill-rule="evenodd" clip-rule="evenodd" d="M10.9844 0H9.5V2.34375H8.01562V3.90625H9.5V5.46875H8.01562V9.96094H6.67969V8.39844H5.19531V9.96094H3.71094V8.39844H0V11.5234H1.48438V9.96094H3.71094V11.5234H8.01562V13.75H9.5V15.3125H8.01562V16.875H9.5V20H12.4688V18.4375H10.9844V16.875H9.5V15.3125H12.4688V16.875H15.4375V18.4375H13.9531V20H15.4375V18.4375H16.9219V20H19V18.4375H16.9219V16.875H15.4375V15.3125H19V11.5234H17.5156V9.96094H19V8.39844H17.5156V9.96094H15.4375V8.39844H10.9844V9.96094H9.5V7.03125H10.9844V3.90625H9.5V2.34375H10.9844V0ZM9.5 11.5234V9.96094H8.01562V11.5234H9.5ZM10.9844 11.5234V13.75H9.5V11.5234H10.9844ZM10.9844 11.5234V9.96094H15.4375V11.5234H13.9531V13.0859H15.4375V11.5234H17.5156V13.75H15.4375V15.3125H12.4688V11.5234H10.9844ZM0 7.03125H6.67969V0H0V7.03125ZM5.19531 1.5625H1.48438V5.46875H5.19531V1.5625ZM2.59766 2.73438H4.08203V4.29688H2.59766V2.73438ZM19 0V7.03125H12.3203V0H19ZM13.8047 1.5625H17.5156V5.46875H13.8047V1.5625ZM16.4023 2.73438H14.918V4.29688H16.4023V2.73438ZM6.67969 12.9688H0V20H6.67969V12.9688ZM1.48438 18.4375H5.19531V14.5312H1.48438V18.4375ZM4.08203 17.2656H2.59766V15.7031H4.08203V17.2656Z" fill="#F7F7F7"/>
</svg>
