
<svg width="225" height="224" viewBox="0 0 225 224" fill="none" xmlns="http://www.w3.org/2000/svg">
<mask id="mask0_1_9335" style="mask-type:luminance" maskUnits="userSpaceOnUse" x="-1" y="0" width="226" height="225">
<rect x="-1" width="226" height="225" fill="white"/>
</mask>
<g mask="url(#mask0_1_9335)">
<rect x="53.3613" y="-0.557373" width="6.80783" height="6.80783" fill="white"/>
<rect x="73.7852" y="-0.557373" width="6.80783" height="6.80783" fill="white"/>
<rect x="80.5918" y="-0.557373" width="6.80783" height="6.80783" fill="white"/>
<rect x="107.824" y="-0.557373" width="6.80783" height="6.80783" fill="white"/>
<rect x="121.439" y="-0.557373" width="6.80783" height="6.80783" fill="white"/>
<rect x="128.248" y="-0.557373" width="6.80783" height="6.80783" fill="white"/>
<rect x="135.055" y="-0.557373" width="6.80783" height="6.80783" fill="white"/>
<rect x="155.479" y="-0.557373" width="6.80783" height="6.80783" fill="white"/>
<rect x="53.3613" y="6.25049" width="6.80783" height="6.80783" fill="white"/>
<rect x="60.168" y="6.25049" width="6.80783" height="6.80783" fill="white"/>
<rect x="94.209" y="6.25049" width="6.80783" height="6.80783" fill="white"/>
<rect x="107.824" y="6.25049" width="6.80783" height="6.80783" fill="white"/>
<rect x="114.631" y="6.25049" width="6.80783" height="6.80783" fill="white"/>
<rect x="121.439" y="6.25049" width="6.80783" height="6.80783" fill="white"/>
<rect x="135.055" y="6.25049" width="6.80783" height="6.80783" fill="white"/>
<rect x="141.863" y="6.25049" width="6.80783" height="6.80783" fill="white"/>
<rect x="148.67" y="6.25049" width="6.80783" height="6.80783" fill="white"/>
<rect x="155.479" y="6.25049" width="6.80783" height="6.80783" fill="white"/>
<rect x="162.287" y="6.25049" width="6.80783" height="6.80783" fill="white"/>
<rect x="80.5918" y="13.0583" width="6.80783" height="6.80783" fill="white"/>
<rect x="87.4004" y="13.0583" width="6.80783" height="6.80783" fill="white"/>
<rect x="94.209" y="13.0583" width="6.80783" height="6.80783" fill="white"/>
<rect x="101.016" y="13.0583" width="6.80783" height="6.80783" fill="white"/>
<rect x="121.439" y="13.0583" width="6.80783" height="6.80783" fill="white"/>
<rect x="135.055" y="13.0583" width="6.80783" height="6.80783" fill="white"/>
<rect x="162.287" y="13.0583" width="6.80783" height="6.80783" fill="white"/>
<rect x="53.3613" y="19.8661" width="6.80783" height="6.80783" fill="white"/>
<rect x="60.168" y="19.8661" width="6.80783" height="6.80783" fill="white"/>
<rect x="73.7852" y="19.8661" width="6.80783" height="6.80783" fill="white"/>
<rect x="114.631" y="19.8661" width="6.80783" height="6.80783" fill="white"/>
<rect x="121.439" y="19.8661" width="6.80783" height="6.80783" fill="white"/>
<rect x="128.248" y="19.8661" width="6.80783" height="6.80783" fill="white"/>
<rect x="148.67" y="19.8661" width="6.80783" height="6.80783" fill="white"/>
<rect x="162.287" y="19.8661" width="6.80783" height="6.80783" fill="white"/>
<rect x="66.9766" y="26.674" width="6.80783" height="6.80783" fill="white"/>
<rect x="73.7852" y="26.674" width="6.80783" height="6.80783" fill="white"/>
<rect x="87.4004" y="26.674" width="6.80783" height="6.80783" fill="white"/>
<rect x="107.824" y="26.674" width="6.80783" height="6.80783" fill="white"/>
<rect x="114.631" y="26.674" width="6.80783" height="6.80783" fill="white"/>
<rect x="121.439" y="26.674" width="6.80783" height="6.80783" fill="white"/>
<rect x="128.248" y="26.674" width="6.80783" height="6.80783" fill="white"/>
<rect x="162.287" y="26.674" width="6.80783" height="6.80783" fill="white"/>
<rect x="66.9766" y="33.4818" width="6.80783" height="6.80783" fill="white"/>
<rect x="73.7852" y="33.4818" width="6.80783" height="6.80783" fill="white"/>
<rect x="80.5918" y="33.4818" width="6.80783" height="6.80783" fill="white"/>
<rect x="87.4004" y="33.4818" width="6.80783" height="6.80783" fill="white"/>
<rect x="94.209" y="33.4818" width="6.80783" height="6.80783" fill="white"/>
<rect x="101.016" y="33.4818" width="6.80783" height="6.80783" fill="white"/>
<rect x="107.824" y="33.4818" width="6.80783" height="6.80783" fill="white"/>
<rect x="121.439" y="33.4818" width="6.80783" height="6.80783" fill="white"/>
<rect x="128.248" y="33.4818" width="6.80783" height="6.80783" fill="white"/>
<rect x="135.055" y="33.4818" width="6.80783" height="6.80783" fill="white"/>
<rect x="141.863" y="33.4818" width="6.80783" height="6.80783" fill="white"/>
<rect x="53.3613" y="40.2896" width="6.80783" height="6.80783" fill="white"/>
<rect x="66.9766" y="40.2896" width="6.80783" height="6.80783" fill="white"/>
<rect x="80.5918" y="40.2896" width="6.80783" height="6.80783" fill="white"/>
<rect x="94.209" y="40.2896" width="6.80783" height="6.80783" fill="white"/>
<rect x="107.824" y="40.2896" width="6.80783" height="6.80783" fill="white"/>
<rect x="121.439" y="40.2896" width="6.80783" height="6.80783" fill="white"/>
<rect x="135.055" y="40.2896" width="6.80783" height="6.80783" fill="white"/>
<rect x="148.67" y="40.2896" width="6.80783" height="6.80783" fill="white"/>
<rect x="162.287" y="40.2896" width="6.80783" height="6.80783" fill="white"/>
<rect x="53.3613" y="47.0975" width="6.80783" height="6.80783" fill="white"/>
<rect x="60.168" y="47.0975" width="6.80783" height="6.80783" fill="white"/>
<rect x="66.9766" y="47.0975" width="6.80783" height="6.80783" fill="white"/>
<rect x="101.016" y="47.0975" width="6.80783" height="6.80783" fill="white"/>
<rect x="107.824" y="47.0975" width="6.80783" height="6.80783" fill="white"/>
<rect x="114.631" y="47.0975" width="6.80783" height="6.80783" fill="white"/>
<rect x="121.439" y="47.0975" width="6.80783" height="6.80783" fill="white"/>
<rect x="128.248" y="47.0975" width="6.80783" height="6.80783" fill="white"/>
<rect x="162.287" y="47.0975" width="6.80783" height="6.80783" fill="white"/>
<rect x="-1.10156" y="53.9053" width="6.80783" height="6.80783" fill="white"/>
<rect x="12.5137" y="53.9053" width="6.80783" height="6.80783" fill="white"/>
<rect x="19.3223" y="53.9053" width="6.80783" height="6.80783" fill="white"/>
<rect x="32.9375" y="53.9053" width="6.80783" height="6.80783" fill="white"/>
<rect x="39.7461" y="53.9053" width="6.80783" height="6.80783" fill="white"/>
<rect x="46.5527" y="53.9053" width="6.80783" height="6.80783" fill="white"/>
<rect x="80.5918" y="53.9053" width="6.80783" height="6.80783" fill="white"/>
<rect x="94.209" y="53.9053" width="6.80783" height="6.80783" fill="white"/>
<rect x="101.016" y="53.9053" width="6.80783" height="6.80783" fill="white"/>
<rect x="107.824" y="53.9053" width="6.80783" height="6.80783" fill="white"/>
<rect x="114.631" y="53.9053" width="6.80783" height="6.80783" fill="white"/>
<rect x="121.439" y="53.9053" width="6.80783" height="6.80783" fill="white"/>
<rect x="128.248" y="53.9053" width="6.80783" height="6.80783" fill="white"/>
<rect x="141.863" y="53.9053" width="6.80783" height="6.80783" fill="white"/>
<rect x="175.902" y="53.9053" width="6.80783" height="6.80783" fill="white"/>
<rect x="196.326" y="53.9053" width="6.80783" height="6.80783" fill="white"/>
<rect x="209.941" y="53.9053" width="6.80783" height="6.80783" fill="white"/>
<rect x="216.75" y="53.9053" width="6.80783" height="6.80783" fill="white"/>
<rect x="-1.10156" y="60.7131" width="6.80783" height="6.80783" fill="white"/>
<rect x="12.5137" y="60.7131" width="6.80783" height="6.80783" fill="white"/>
<rect x="19.3223" y="60.7131" width="6.80783" height="6.80783" fill="white"/>
<rect x="26.1289" y="60.7131" width="6.80783" height="6.80783" fill="white"/>
<rect x="32.9375" y="60.7131" width="6.80783" height="6.80783" fill="white"/>
<rect x="53.3613" y="60.7131" width="6.80783" height="6.80783" fill="white"/>
<rect x="60.168" y="60.7131" width="6.80783" height="6.80783" fill="white"/>
<rect x="73.7852" y="60.7131" width="6.80783" height="6.80783" fill="white"/>
<rect x="87.4004" y="60.7131" width="6.80783" height="6.80783" fill="white"/>
<rect x="114.631" y="60.7131" width="6.80783" height="6.80783" fill="white"/>
<rect x="128.248" y="60.7131" width="6.80783" height="6.80783" fill="white"/>
<rect x="135.055" y="60.7131" width="6.80783" height="6.80783" fill="white"/>
<rect x="155.479" y="60.7131" width="6.80783" height="6.80783" fill="white"/>
<rect x="175.902" y="60.7131" width="6.80783" height="6.80783" fill="white"/>
<rect x="182.709" y="60.7131" width="6.80783" height="6.80783" fill="white"/>
<rect x="196.326" y="60.7131" width="6.80783" height="6.80783" fill="white"/>
<rect x="203.133" y="60.7131" width="6.80783" height="6.80783" fill="white"/>
<rect x="209.941" y="60.7131" width="6.80783" height="6.80783" fill="white"/>
<rect x="216.75" y="60.7131" width="6.80783" height="6.80783" fill="white"/>
<rect x="26.1289" y="67.5209" width="6.80783" height="6.80783" fill="white"/>
<rect x="39.7461" y="67.5209" width="6.80783" height="6.80783" fill="white"/>
<rect x="46.5527" y="67.5209" width="6.80783" height="6.80783" fill="white"/>
<rect x="73.7852" y="67.5209" width="6.80783" height="6.80783" fill="white"/>
<rect x="87.4004" y="67.5209" width="6.80783" height="6.80783" fill="white"/>
<rect x="114.631" y="67.5209" width="6.80783" height="6.80783" fill="white"/>
<rect x="121.439" y="67.5209" width="6.80783" height="6.80783" fill="white"/>
<rect x="135.055" y="67.5209" width="6.80783" height="6.80783" fill="white"/>
<rect x="148.67" y="67.5209" width="6.80783" height="6.80783" fill="white"/>
<rect x="155.479" y="67.5209" width="6.80783" height="6.80783" fill="white"/>
<rect x="162.287" y="67.5209" width="6.80783" height="6.80783" fill="white"/>
<rect x="169.094" y="67.5209" width="6.80783" height="6.80783" fill="white"/>
<rect x="182.709" y="67.5209" width="6.80783" height="6.80783" fill="white"/>
<rect x="189.518" y="67.5209" width="6.80783" height="6.80783" fill="white"/>
<rect x="196.326" y="67.5209" width="6.80783" height="6.80783" fill="white"/>
<rect x="209.941" y="67.5209" width="6.80783" height="6.80783" fill="white"/>
<rect x="216.75" y="67.5209" width="6.80783" height="6.80783" fill="white"/>
<rect x="-1.10156" y="74.3288" width="6.80783" height="6.80783" fill="white"/>
<rect x="5.70703" y="74.3288" width="6.80783" height="6.80783" fill="white"/>
<rect x="19.3223" y="74.3288" width="6.80783" height="6.80783" fill="white"/>
<rect x="60.168" y="74.3288" width="6.80783" height="6.80783" fill="white"/>
<rect x="73.7852" y="74.3288" width="6.80783" height="6.80783" fill="white"/>
<rect x="80.5918" y="74.3288" width="6.80783" height="6.80783" fill="white"/>
<rect x="101.016" y="74.3288" width="6.80783" height="6.80783" fill="white"/>
<rect x="107.824" y="74.3288" width="6.80783" height="6.80783" fill="white"/>
<rect x="121.439" y="74.3288" width="6.80783" height="6.80783" fill="white"/>
<rect x="135.055" y="74.3288" width="6.80783" height="6.80783" fill="white"/>
<rect x="148.67" y="74.3288" width="6.80783" height="6.80783" fill="white"/>
<rect x="162.287" y="74.3288" width="6.80783" height="6.80783" fill="white"/>
<rect x="175.902" y="74.3288" width="6.80783" height="6.80783" fill="white"/>
<rect x="182.709" y="74.3288" width="6.80783" height="6.80783" fill="white"/>
<rect x="196.326" y="74.3288" width="6.80783" height="6.80783" fill="white"/>
<rect x="216.75" y="74.3288" width="6.80783" height="6.80783" fill="white"/>
<rect x="19.3223" y="81.1366" width="6.80783" height="6.80783" fill="white"/>
<rect x="39.7461" y="81.1366" width="6.80783" height="6.80783" fill="white"/>
<rect x="73.7852" y="81.1366" width="6.80783" height="6.80783" fill="white"/>
<rect x="94.209" y="81.1366" width="6.80783" height="6.80783" fill="white"/>
<rect x="101.016" y="81.1366" width="6.80783" height="6.80783" fill="white"/>
<rect x="107.824" y="81.1366" width="6.80783" height="6.80783" fill="white"/>
<rect x="114.631" y="81.1366" width="6.80783" height="6.80783" fill="white"/>
<rect x="121.439" y="81.1366" width="6.80783" height="6.80783" fill="white"/>
<rect x="128.248" y="81.1366" width="6.80783" height="6.80783" fill="white"/>
<rect x="148.67" y="81.1366" width="6.80783" height="6.80783" fill="white"/>
<rect x="155.479" y="81.1366" width="6.80783" height="6.80783" fill="white"/>
<rect x="162.287" y="81.1366" width="6.80783" height="6.80783" fill="white"/>
<rect x="169.094" y="81.1366" width="6.80783" height="6.80783" fill="white"/>
<rect x="182.709" y="81.1366" width="6.80783" height="6.80783" fill="white"/>
<rect x="189.518" y="81.1366" width="6.80783" height="6.80783" fill="white"/>
<rect x="196.326" y="81.1366" width="6.80783" height="6.80783" fill="white"/>
<rect x="216.75" y="81.1366" width="6.80783" height="6.80783" fill="white"/>
<rect x="26.1289" y="87.9445" width="6.80783" height="6.80783" fill="white"/>
<rect x="66.9766" y="87.9445" width="6.80783" height="6.80783" fill="white"/>
<rect x="87.4004" y="87.9445" width="6.80783" height="6.80783" fill="white"/>
<rect x="94.209" y="87.9445" width="6.80783" height="6.80783" fill="white"/>
<rect x="114.631" y="87.9445" width="6.80783" height="6.80783" fill="white"/>
<rect x="121.439" y="87.9445" width="6.80783" height="6.80783" fill="white"/>
<rect x="128.248" y="87.9445" width="6.80783" height="6.80783" fill="white"/>
<rect x="141.863" y="87.9445" width="6.80783" height="6.80783" fill="white"/>
<rect x="162.287" y="87.9445" width="6.80783" height="6.80783" fill="white"/>
<rect x="169.094" y="87.9445" width="6.80783" height="6.80783" fill="white"/>
<rect x="209.941" y="87.9445" width="6.80783" height="6.80783" fill="white"/>
<rect x="12.5137" y="94.7523" width="6.80783" height="6.80783" fill="white"/>
<rect x="19.3223" y="94.7523" width="6.80783" height="6.80783" fill="white"/>
<rect x="26.1289" y="94.7523" width="6.80783" height="6.80783" fill="white"/>
<rect x="39.7461" y="94.7523" width="6.80783" height="6.80783" fill="white"/>
<rect x="53.3613" y="94.7523" width="6.80783" height="6.80783" fill="white"/>
<rect x="66.9766" y="94.7523" width="6.80783" height="6.80783" fill="white"/>
<rect x="80.5918" y="94.7523" width="6.80783" height="6.80783" fill="white"/>
<rect x="87.4004" y="94.7523" width="6.80783" height="6.80783" fill="white"/>
<rect x="94.209" y="94.7523" width="6.80783" height="6.80783" fill="white"/>
<rect x="121.439" y="94.7523" width="6.80783" height="6.80783" fill="white"/>
<rect x="128.248" y="94.7523" width="6.80783" height="6.80783" fill="white"/>
<rect x="135.055" y="94.7523" width="6.80783" height="6.80783" fill="white"/>
<rect x="141.863" y="94.7523" width="6.80783" height="6.80783" fill="white"/>
<rect x="175.902" y="94.7523" width="6.80783" height="6.80783" fill="white"/>
<rect x="182.709" y="94.7523" width="6.80783" height="6.80783" fill="white"/>
<rect x="189.518" y="94.7523" width="6.80783" height="6.80783" fill="white"/>
<rect x="196.326" y="94.7523" width="6.80783" height="6.80783" fill="white"/>
<rect x="12.5137" y="101.56" width="6.80783" height="6.80783" fill="white"/>
<rect x="19.3223" y="101.56" width="6.80783" height="6.80783" fill="white"/>
<rect x="26.1289" y="101.56" width="6.80783" height="6.80783" fill="white"/>
<rect x="32.9375" y="101.56" width="6.80783" height="6.80783" fill="white"/>
<rect x="53.3613" y="101.56" width="6.80783" height="6.80783" fill="white"/>
<rect x="87.4004" y="101.56" width="6.80783" height="6.80783" fill="white"/>
<rect x="94.209" y="101.56" width="6.80783" height="6.80783" fill="white"/>
<rect x="101.016" y="101.56" width="6.80783" height="6.80783" fill="white"/>
<rect x="121.439" y="101.56" width="6.80783" height="6.80783" fill="white"/>
<rect x="141.863" y="101.56" width="6.80783" height="6.80783" fill="white"/>
<rect x="148.67" y="101.56" width="6.80783" height="6.80783" fill="white"/>
<rect x="169.094" y="101.56" width="6.80783" height="6.80783" fill="white"/>
<rect x="175.902" y="101.56" width="6.80783" height="6.80783" fill="white"/>
<rect x="196.326" y="101.56" width="6.80783" height="6.80783" fill="white"/>
<rect x="203.133" y="101.56" width="6.80783" height="6.80783" fill="white"/>
<rect x="-1.10156" y="108.368" width="6.80783" height="6.80783" fill="white"/>
<rect x="5.70703" y="108.368" width="6.80783" height="6.80783" fill="white"/>
<rect x="19.3223" y="108.368" width="6.80783" height="6.80783" fill="white"/>
<rect x="26.1289" y="108.368" width="6.80783" height="6.80783" fill="white"/>
<rect x="39.7461" y="108.368" width="6.80783" height="6.80783" fill="white"/>
<rect x="46.5527" y="108.368" width="6.80783" height="6.80783" fill="white"/>
<rect x="53.3613" y="108.368" width="6.80783" height="6.80783" fill="white"/>
<rect x="60.168" y="108.368" width="6.80783" height="6.80783" fill="white"/>
<rect x="66.9766" y="108.368" width="6.80783" height="6.80783" fill="white"/>
<rect x="80.5918" y="108.368" width="6.80783" height="6.80783" fill="white"/>
<rect x="107.824" y="108.368" width="6.80783" height="6.80783" fill="white"/>
<rect x="135.055" y="108.368" width="6.80783" height="6.80783" fill="white"/>
<rect x="141.863" y="108.368" width="6.80783" height="6.80783" fill="white"/>
<rect x="148.67" y="108.368" width="6.80783" height="6.80783" fill="white"/>
<rect x="155.479" y="108.368" width="6.80783" height="6.80783" fill="white"/>
<rect x="169.094" y="108.368" width="6.80783" height="6.80783" fill="white"/>
<rect x="175.902" y="108.368" width="6.80783" height="6.80783" fill="white"/>
<rect x="189.518" y="108.368" width="6.80783" height="6.80783" fill="white"/>
<rect x="196.326" y="108.368" width="6.80783" height="6.80783" fill="white"/>
<rect x="203.133" y="108.368" width="6.80783" height="6.80783" fill="white"/>
<rect x="19.3223" y="115.176" width="6.80783" height="6.80783" fill="white"/>
<rect x="32.9375" y="115.176" width="6.80783" height="6.80783" fill="white"/>
<rect x="46.5527" y="115.176" width="6.80783" height="6.80783" fill="white"/>
<rect x="60.168" y="115.176" width="6.80783" height="6.80783" fill="white"/>
<rect x="73.7852" y="115.176" width="6.80783" height="6.80783" fill="white"/>
<rect x="80.5918" y="115.176" width="6.80783" height="6.80783" fill="white"/>
<rect x="87.4004" y="115.176" width="6.80783" height="6.80783" fill="white"/>
<rect x="94.209" y="115.176" width="6.80783" height="6.80783" fill="white"/>
<rect x="101.016" y="115.176" width="6.80783" height="6.80783" fill="white"/>
<rect x="141.863" y="115.176" width="6.80783" height="6.80783" fill="white"/>
<rect x="155.479" y="115.176" width="6.80783" height="6.80783" fill="white"/>
<rect x="162.287" y="115.176" width="6.80783" height="6.80783" fill="white"/>
<rect x="175.902" y="115.176" width="6.80783" height="6.80783" fill="white"/>
<rect x="189.518" y="115.176" width="6.80783" height="6.80783" fill="white"/>
<rect x="196.326" y="115.176" width="6.80783" height="6.80783" fill="white"/>
<rect x="209.941" y="115.176" width="6.80783" height="6.80783" fill="white"/>
<rect x="216.75" y="115.176" width="6.80783" height="6.80783" fill="white"/>
<rect x="-1.10156" y="121.984" width="6.80783" height="6.80783" fill="white"/>
<rect x="19.3223" y="121.984" width="6.80783" height="6.80783" fill="white"/>
<rect x="32.9375" y="121.984" width="6.80783" height="6.80783" fill="white"/>
<rect x="39.7461" y="121.984" width="6.80783" height="6.80783" fill="white"/>
<rect x="46.5527" y="121.984" width="6.80783" height="6.80783" fill="white"/>
<rect x="66.9766" y="121.984" width="6.80783" height="6.80783" fill="white"/>
<rect x="80.5918" y="121.984" width="6.80783" height="6.80783" fill="white"/>
<rect x="94.209" y="121.984" width="6.80783" height="6.80783" fill="white"/>
<rect x="101.016" y="121.984" width="6.80783" height="6.80783" fill="white"/>
<rect x="107.824" y="121.984" width="6.80783" height="6.80783" fill="white"/>
<rect x="121.439" y="121.984" width="6.80783" height="6.80783" fill="white"/>
<rect x="141.863" y="121.984" width="6.80783" height="6.80783" fill="white"/>
<rect x="182.709" y="121.984" width="6.80783" height="6.80783" fill="white"/>
<rect x="189.518" y="121.984" width="6.80783" height="6.80783" fill="white"/>
<rect x="203.133" y="121.984" width="6.80783" height="6.80783" fill="white"/>
<rect x="209.941" y="121.984" width="6.80783" height="6.80783" fill="white"/>
<rect x="-1.10156" y="128.791" width="6.80783" height="6.80783" fill="white"/>
<rect x="5.70703" y="128.791" width="6.80783" height="6.80783" fill="white"/>
<rect x="12.5137" y="128.791" width="6.80783" height="6.80783" fill="white"/>
<rect x="19.3223" y="128.791" width="6.80783" height="6.80783" fill="white"/>
<rect x="26.1289" y="128.791" width="6.80783" height="6.80783" fill="white"/>
<rect x="46.5527" y="128.791" width="6.80783" height="6.80783" fill="white"/>
<rect x="53.3613" y="128.791" width="6.80783" height="6.80783" fill="white"/>
<rect x="66.9766" y="128.791" width="6.80783" height="6.80783" fill="white"/>
<rect x="73.7852" y="128.791" width="6.80783" height="6.80783" fill="white"/>
<rect x="87.4004" y="128.791" width="6.80783" height="6.80783" fill="white"/>
<rect x="107.824" y="128.791" width="6.80783" height="6.80783" fill="white"/>
<rect x="114.631" y="128.791" width="6.80783" height="6.80783" fill="white"/>
<rect x="121.439" y="128.791" width="6.80783" height="6.80783" fill="white"/>
<rect x="148.67" y="128.791" width="6.80783" height="6.80783" fill="white"/>
<rect x="155.479" y="128.791" width="6.80783" height="6.80783" fill="white"/>
<rect x="162.287" y="128.791" width="6.80783" height="6.80783" fill="white"/>
<rect x="175.902" y="128.791" width="6.80783" height="6.80783" fill="white"/>
<rect x="189.518" y="128.791" width="6.80783" height="6.80783" fill="white"/>
<rect x="12.5137" y="135.599" width="6.80783" height="6.80783" fill="white"/>
<rect x="19.3223" y="135.599" width="6.80783" height="6.80783" fill="white"/>
<rect x="26.1289" y="135.599" width="6.80783" height="6.80783" fill="white"/>
<rect x="32.9375" y="135.599" width="6.80783" height="6.80783" fill="white"/>
<rect x="39.7461" y="135.599" width="6.80783" height="6.80783" fill="white"/>
<rect x="53.3613" y="135.599" width="6.80783" height="6.80783" fill="white"/>
<rect x="60.168" y="135.599" width="6.80783" height="6.80783" fill="white"/>
<rect x="66.9766" y="135.599" width="6.80783" height="6.80783" fill="white"/>
<rect x="87.4004" y="135.599" width="6.80783" height="6.80783" fill="white"/>
<rect x="107.824" y="135.599" width="6.80783" height="6.80783" fill="white"/>
<rect x="128.248" y="135.599" width="6.80783" height="6.80783" fill="white"/>
<rect x="141.863" y="135.599" width="6.80783" height="6.80783" fill="white"/>
<rect x="162.287" y="135.599" width="6.80783" height="6.80783" fill="white"/>
<rect x="196.326" y="135.599" width="6.80783" height="6.80783" fill="white"/>
<rect x="203.133" y="135.599" width="6.80783" height="6.80783" fill="white"/>
<rect x="209.941" y="135.599" width="6.80783" height="6.80783" fill="white"/>
<rect x="-1.10156" y="142.407" width="6.80783" height="6.80783" fill="white"/>
<rect x="19.3223" y="142.407" width="6.80783" height="6.80783" fill="white"/>
<rect x="46.5527" y="142.407" width="6.80783" height="6.80783" fill="white"/>
<rect x="80.5918" y="142.407" width="6.80783" height="6.80783" fill="white"/>
<rect x="87.4004" y="142.407" width="6.80783" height="6.80783" fill="white"/>
<rect x="101.016" y="142.407" width="6.80783" height="6.80783" fill="white"/>
<rect x="107.824" y="142.407" width="6.80783" height="6.80783" fill="white"/>
<rect x="114.631" y="142.407" width="6.80783" height="6.80783" fill="white"/>
<rect x="121.439" y="142.407" width="6.80783" height="6.80783" fill="white"/>
<rect x="128.248" y="142.407" width="6.80783" height="6.80783" fill="white"/>
<rect x="135.055" y="142.407" width="6.80783" height="6.80783" fill="white"/>
<rect x="141.863" y="142.407" width="6.80783" height="6.80783" fill="white"/>
<rect x="155.479" y="142.407" width="6.80783" height="6.80783" fill="white"/>
<rect x="175.902" y="142.407" width="6.80783" height="6.80783" fill="white"/>
<rect x="196.326" y="142.407" width="6.80783" height="6.80783" fill="white"/>
<rect x="216.75" y="142.407" width="6.80783" height="6.80783" fill="white"/>
<rect x="19.3223" y="149.215" width="6.80783" height="6.80783" fill="white"/>
<rect x="26.1289" y="149.215" width="6.80783" height="6.80783" fill="white"/>
<rect x="39.7461" y="149.215" width="6.80783" height="6.80783" fill="white"/>
<rect x="66.9766" y="149.215" width="6.80783" height="6.80783" fill="white"/>
<rect x="73.7852" y="149.215" width="6.80783" height="6.80783" fill="white"/>
<rect x="80.5918" y="149.215" width="6.80783" height="6.80783" fill="white"/>
<rect x="101.016" y="149.215" width="6.80783" height="6.80783" fill="white"/>
<rect x="121.439" y="149.215" width="6.80783" height="6.80783" fill="white"/>
<rect x="135.055" y="149.215" width="6.80783" height="6.80783" fill="white"/>
<rect x="141.863" y="149.215" width="6.80783" height="6.80783" fill="white"/>
<rect x="155.479" y="149.215" width="6.80783" height="6.80783" fill="white"/>
<rect x="169.094" y="149.215" width="6.80783" height="6.80783" fill="white"/>
<rect x="175.902" y="149.215" width="6.80783" height="6.80783" fill="white"/>
<rect x="189.518" y="149.215" width="6.80783" height="6.80783" fill="white"/>
<rect x="196.326" y="149.215" width="6.80783" height="6.80783" fill="white"/>
<rect x="209.941" y="149.215" width="6.80783" height="6.80783" fill="white"/>
<rect x="216.75" y="149.215" width="6.80783" height="6.80783" fill="white"/>
<rect x="5.70703" y="156.023" width="6.80783" height="6.80783" fill="white"/>
<rect x="12.5137" y="156.023" width="6.80783" height="6.80783" fill="white"/>
<rect x="26.1289" y="156.023" width="6.80783" height="6.80783" fill="white"/>
<rect x="32.9375" y="156.023" width="6.80783" height="6.80783" fill="white"/>
<rect x="46.5527" y="156.023" width="6.80783" height="6.80783" fill="white"/>
<rect x="53.3613" y="156.023" width="6.80783" height="6.80783" fill="white"/>
<rect x="60.168" y="156.023" width="6.80783" height="6.80783" fill="white"/>
<rect x="66.9766" y="156.023" width="6.80783" height="6.80783" fill="white"/>
<rect x="73.7852" y="156.023" width="6.80783" height="6.80783" fill="white"/>
<rect x="94.209" y="156.023" width="6.80783" height="6.80783" fill="white"/>
<rect x="101.016" y="156.023" width="6.80783" height="6.80783" fill="white"/>
<rect x="121.439" y="156.023" width="6.80783" height="6.80783" fill="white"/>
<rect x="128.248" y="156.023" width="6.80783" height="6.80783" fill="white"/>
<rect x="148.67" y="156.023" width="6.80783" height="6.80783" fill="white"/>
<rect x="155.479" y="156.023" width="6.80783" height="6.80783" fill="white"/>
<rect x="169.094" y="156.023" width="6.80783" height="6.80783" fill="white"/>
<rect x="182.709" y="156.023" width="6.80783" height="6.80783" fill="white"/>
<rect x="189.518" y="156.023" width="6.80783" height="6.80783" fill="white"/>
<rect x="196.326" y="156.023" width="6.80783" height="6.80783" fill="white"/>
<rect x="216.75" y="156.023" width="6.80783" height="6.80783" fill="white"/>
<rect x="-1.10156" y="162.831" width="6.80783" height="6.80783" fill="white"/>
<rect x="12.5137" y="162.831" width="6.80783" height="6.80783" fill="white"/>
<rect x="32.9375" y="162.831" width="6.80783" height="6.80783" fill="white"/>
<rect x="39.7461" y="162.831" width="6.80783" height="6.80783" fill="white"/>
<rect x="53.3613" y="162.831" width="6.80783" height="6.80783" fill="white"/>
<rect x="80.5918" y="162.831" width="6.80783" height="6.80783" fill="white"/>
<rect x="94.209" y="162.831" width="6.80783" height="6.80783" fill="white"/>
<rect x="114.631" y="162.831" width="6.80783" height="6.80783" fill="white"/>
<rect x="135.055" y="162.831" width="6.80783" height="6.80783" fill="white"/>
<rect x="148.67" y="162.831" width="6.80783" height="6.80783" fill="white"/>
<rect x="162.287" y="162.831" width="6.80783" height="6.80783" fill="white"/>
<rect x="169.094" y="162.831" width="6.80783" height="6.80783" fill="white"/>
<rect x="175.902" y="162.831" width="6.80783" height="6.80783" fill="white"/>
<rect x="182.709" y="162.831" width="6.80783" height="6.80783" fill="white"/>
<rect x="189.518" y="162.831" width="6.80783" height="6.80783" fill="white"/>
<rect x="209.941" y="162.831" width="6.80783" height="6.80783" fill="white"/>
<rect x="53.3613" y="169.638" width="6.80783" height="6.80783" fill="white"/>
<rect x="66.9766" y="169.638" width="6.80783" height="6.80783" fill="white"/>
<rect x="80.5918" y="169.638" width="6.80783" height="6.80783" fill="white"/>
<rect x="87.4004" y="169.638" width="6.80783" height="6.80783" fill="white"/>
<rect x="94.209" y="169.638" width="6.80783" height="6.80783" fill="white"/>
<rect x="101.016" y="169.638" width="6.80783" height="6.80783" fill="white"/>
<rect x="107.824" y="169.638" width="6.80783" height="6.80783" fill="white"/>
<rect x="121.439" y="169.638" width="6.80783" height="6.80783" fill="white"/>
<rect x="128.248" y="169.638" width="6.80783" height="6.80783" fill="white"/>
<rect x="141.863" y="169.638" width="6.80783" height="6.80783" fill="white"/>
<rect x="155.479" y="169.638" width="6.80783" height="6.80783" fill="white"/>
<rect x="162.287" y="169.638" width="6.80783" height="6.80783" fill="white"/>
<rect x="189.518" y="169.638" width="6.80783" height="6.80783" fill="white"/>
<rect x="196.326" y="169.638" width="6.80783" height="6.80783" fill="white"/>
<rect x="209.941" y="169.638" width="6.80783" height="6.80783" fill="white"/>
<rect x="53.3613" y="176.446" width="6.80783" height="6.80783" fill="white"/>
<rect x="60.168" y="176.446" width="6.80783" height="6.80783" fill="white"/>
<rect x="80.5918" y="176.446" width="6.80783" height="6.80783" fill="white"/>
<rect x="87.4004" y="176.446" width="6.80783" height="6.80783" fill="white"/>
<rect x="94.209" y="176.446" width="6.80783" height="6.80783" fill="white"/>
<rect x="114.631" y="176.446" width="6.80783" height="6.80783" fill="white"/>
<rect x="121.439" y="176.446" width="6.80783" height="6.80783" fill="white"/>
<rect x="128.248" y="176.446" width="6.80783" height="6.80783" fill="white"/>
<rect x="135.055" y="176.446" width="6.80783" height="6.80783" fill="white"/>
<rect x="141.863" y="176.446" width="6.80783" height="6.80783" fill="white"/>
<rect x="155.479" y="176.446" width="6.80783" height="6.80783" fill="white"/>
<rect x="162.287" y="176.446" width="6.80783" height="6.80783" fill="white"/>
<rect x="175.902" y="176.446" width="6.80783" height="6.80783" fill="white"/>
<rect x="189.518" y="176.446" width="6.80783" height="6.80783" fill="white"/>
<rect x="53.3613" y="183.254" width="6.80783" height="6.80783" fill="white"/>
<rect x="60.168" y="183.254" width="6.80783" height="6.80783" fill="white"/>
<rect x="73.7852" y="183.254" width="6.80783" height="6.80783" fill="white"/>
<rect x="94.209" y="183.254" width="6.80783" height="6.80783" fill="white"/>
<rect x="114.631" y="183.254" width="6.80783" height="6.80783" fill="white"/>
<rect x="121.439" y="183.254" width="6.80783" height="6.80783" fill="white"/>
<rect x="128.248" y="183.254" width="6.80783" height="6.80783" fill="white"/>
<rect x="141.863" y="183.254" width="6.80783" height="6.80783" fill="white"/>
<rect x="148.67" y="183.254" width="6.80783" height="6.80783" fill="white"/>
<rect x="155.479" y="183.254" width="6.80783" height="6.80783" fill="white"/>
<rect x="162.287" y="183.254" width="6.80783" height="6.80783" fill="white"/>
<rect x="189.518" y="183.254" width="6.80783" height="6.80783" fill="white"/>
<rect x="196.326" y="183.254" width="6.80783" height="6.80783" fill="white"/>
<rect x="203.133" y="183.254" width="6.80783" height="6.80783" fill="white"/>
<rect x="209.941" y="183.254" width="6.80783" height="6.80783" fill="white"/>
<rect x="80.5918" y="190.062" width="6.80783" height="6.80783" fill="white"/>
<rect x="107.824" y="190.062" width="6.80783" height="6.80783" fill="white"/>
<rect x="114.631" y="190.062" width="6.80783" height="6.80783" fill="white"/>
<rect x="121.439" y="190.062" width="6.80783" height="6.80783" fill="white"/>
<rect x="141.863" y="190.062" width="6.80783" height="6.80783" fill="white"/>
<rect x="155.479" y="190.062" width="6.80783" height="6.80783" fill="white"/>
<rect x="162.287" y="190.062" width="6.80783" height="6.80783" fill="white"/>
<rect x="169.094" y="190.062" width="6.80783" height="6.80783" fill="white"/>
<rect x="175.902" y="190.062" width="6.80783" height="6.80783" fill="white"/>
<rect x="182.709" y="190.062" width="6.80783" height="6.80783" fill="white"/>
<rect x="189.518" y="190.062" width="6.80783" height="6.80783" fill="white"/>
<rect x="203.133" y="190.062" width="6.80783" height="6.80783" fill="white"/>
<rect x="209.941" y="190.062" width="6.80783" height="6.80783" fill="white"/>
<rect x="216.75" y="190.062" width="6.80783" height="6.80783" fill="white"/>
<rect x="53.3613" y="196.87" width="6.80783" height="6.80783" fill="white"/>
<rect x="66.9766" y="196.87" width="6.80783" height="6.80783" fill="white"/>
<rect x="94.209" y="196.87" width="6.80783" height="6.80783" fill="white"/>
<rect x="107.824" y="196.87" width="6.80783" height="6.80783" fill="white"/>
<rect x="135.055" y="196.87" width="6.80783" height="6.80783" fill="white"/>
<rect x="182.709" y="196.87" width="6.80783" height="6.80783" fill="white"/>
<rect x="196.326" y="196.87" width="6.80783" height="6.80783" fill="white"/>
<rect x="203.133" y="196.87" width="6.80783" height="6.80783" fill="white"/>
<rect x="216.75" y="196.87" width="6.80783" height="6.80783" fill="white"/>
<rect x="53.3613" y="203.678" width="6.80783" height="6.80783" fill="white"/>
<rect x="60.168" y="203.678" width="6.80783" height="6.80783" fill="white"/>
<rect x="94.209" y="203.678" width="6.80783" height="6.80783" fill="white"/>
<rect x="101.016" y="203.678" width="6.80783" height="6.80783" fill="white"/>
<rect x="107.824" y="203.678" width="6.80783" height="6.80783" fill="white"/>
<rect x="135.055" y="203.678" width="6.80783" height="6.80783" fill="white"/>
<rect x="141.863" y="203.678" width="6.80783" height="6.80783" fill="white"/>
<rect x="148.67" y="203.678" width="6.80783" height="6.80783" fill="white"/>
<rect x="175.902" y="203.678" width="6.80783" height="6.80783" fill="white"/>
<rect x="182.709" y="203.678" width="6.80783" height="6.80783" fill="white"/>
<rect x="196.326" y="203.678" width="6.80783" height="6.80783" fill="white"/>
<rect x="66.9766" y="210.485" width="6.80783" height="6.80783" fill="white"/>
<rect x="73.7852" y="210.485" width="6.80783" height="6.80783" fill="white"/>
<rect x="87.4004" y="210.485" width="6.80783" height="6.80783" fill="white"/>
<rect x="114.631" y="210.485" width="6.80783" height="6.80783" fill="white"/>
<rect x="121.439" y="210.485" width="6.80783" height="6.80783" fill="white"/>
<rect x="128.248" y="210.485" width="6.80783" height="6.80783" fill="white"/>
<rect x="148.67" y="210.485" width="6.80783" height="6.80783" fill="white"/>
<rect x="162.287" y="210.485" width="6.80783" height="6.80783" fill="white"/>
<rect x="169.094" y="210.485" width="6.80783" height="6.80783" fill="white"/>
<rect x="182.709" y="210.485" width="6.80783" height="6.80783" fill="white"/>
<rect x="189.518" y="210.485" width="6.80783" height="6.80783" fill="white"/>
<rect x="216.75" y="210.485" width="6.80783" height="6.80783" fill="white"/>
<rect x="53.3613" y="217.293" width="6.80783" height="6.80783" fill="white"/>
<rect x="60.168" y="217.293" width="6.80783" height="6.80783" fill="white"/>
<rect x="66.9766" y="217.293" width="6.80783" height="6.80783" fill="white"/>
<rect x="80.5918" y="217.293" width="6.80783" height="6.80783" fill="white"/>
<rect x="87.4004" y="217.293" width="6.80783" height="6.80783" fill="white"/>
<rect x="94.209" y="217.293" width="6.80783" height="6.80783" fill="white"/>
<rect x="114.631" y="217.293" width="6.80783" height="6.80783" fill="white"/>
<rect x="121.439" y="217.293" width="6.80783" height="6.80783" fill="white"/>
<rect x="135.055" y="217.293" width="6.80783" height="6.80783" fill="white"/>
<rect x="141.863" y="217.293" width="6.80783" height="6.80783" fill="white"/>
<rect x="155.479" y="217.293" width="6.80783" height="6.80783" fill="white"/>
<rect x="175.902" y="217.293" width="6.80783" height="6.80783" fill="white"/>
<rect x="189.518" y="217.293" width="6.80783" height="6.80783" fill="white"/>
<rect x="196.326" y="217.293" width="6.80783" height="6.80783" fill="white"/>
<rect x="203.133" y="217.293" width="6.80783" height="6.80783" fill="white"/>
<path fill-rule="evenodd" clip-rule="evenodd" d="M6.04666 -0.557373H39.405H46.5533V6.59085V39.9492V47.0975H39.405H6.04666H-1.10156V39.9492V6.59085V-0.557373H6.04666ZM6.04666 39.9492H39.405V6.59085H6.04666V39.9492Z" fill="white"/>
<path fill-rule="evenodd" clip-rule="evenodd" d="M183.051 -0.557373H216.409H223.557V6.59085V39.9492V47.0975H216.409H183.051H175.902V39.9492V6.59085V-0.557373H183.051ZM183.051 39.9492H216.409V6.59085H183.051V39.9492Z" fill="white"/>
<path fill-rule="evenodd" clip-rule="evenodd" d="M6.04666 176.446H39.405H46.5533V183.595V216.953V224.101H39.405H6.04666H-1.10156V216.953V183.595V176.446H6.04666ZM6.04666 216.953H39.405V183.595H6.04666V216.953Z" fill="white"/>
<rect x="12.5137" y="13.0583" width="20.4235" height="20.4235" fill="white"/>
<rect x="189.518" y="13.0583" width="20.4235" height="20.4235" fill="white"/>
<rect x="12.5137" y="190.062" width="20.4235" height="20.4235" fill="white"/>
</g>
</svg>
